<?xml version="1.0"?>
<svg xmlns="http://www.w3.org/2000/svg" xmlns:xlink="http://www.w3.org/1999/xlink" version="1.1" id="Capa_1" x="0px" y="0px" viewBox="0 0 59 59" style="enable-background:new 0 0 59 59;" xml:space="preserve" width="512px" height="512px" class=""><g><g>
	<g>
		<polygon style="fill:#427AA1" points="46.5,14 32.5,0 1.5,0 1.5,58 46.5,58   " data-original="#EFEBDE" class="" data-old_color="#EBF2FA"/>
		<g>
			<path style="fill:#EBF2FA" d="M11.5,23h25c0.552,0,1-0.447,1-1s-0.448-1-1-1h-25c-0.552,0-1,0.447-1,1S10.948,23,11.5,23z" data-original="#D5D0BB" class="" data-old_color="#D5D0BB"/>
			<path style="fill:#EBF2FA" d="M11.5,15h10c0.552,0,1-0.447,1-1s-0.448-1-1-1h-10c-0.552,0-1,0.447-1,1S10.948,15,11.5,15z" data-original="#D5D0BB" class="" data-old_color="#D5D0BB"/>
			<path style="fill:#EBF2FA" d="M36.5,29h-25c-0.552,0-1,0.447-1,1s0.448,1,1,1h25c0.552,0,1-0.447,1-1S37.052,29,36.5,29z" data-original="#D5D0BB" class="" data-old_color="#D5D0BB"/>
			<path style="fill:#EBF2FA" d="M36.5,37h-25c-0.552,0-1,0.447-1,1s0.448,1,1,1h25c0.552,0,1-0.447,1-1S37.052,37,36.5,37z" data-original="#D5D0BB" class="" data-old_color="#D5D0BB"/>
			<path style="fill:#EBF2FA" d="M36.5,45h-25c-0.552,0-1,0.447-1,1s0.448,1,1,1h25c0.552,0,1-0.447,1-1S37.052,45,36.5,45z" data-original="#D5D0BB" class="" data-old_color="#D5D0BB"/>
		</g>
		<polygon style="fill:#EBF2FA" points="32.5,0 32.5,14 46.5,14   " data-original="#D5D0BB" class="" data-old_color="#D5D0BB"/>
	</g>
	<g>
		<path style="fill:#ACC9F3" d="M47.5,46h-2l0,0c-3.633-1.453-6-4.861-6-8.64V34h14v3.36C53.5,41.139,51.133,44.547,47.5,46    L47.5,46z" data-original="#91BAE1" class="active-path" data-old_color="#ABC9F3"/>
		<path style="fill:#ACC9F3" d="M45.5,46h2l0,0c3.633,1.453,6,4.861,6,8.64V58h-14v-3.36C39.5,50.861,41.867,47.453,45.5,46    L45.5,46z" data-original="#91BAE1" class="active-path" data-old_color="#ABC9F3"/>
		<g>
			<path style="fill:#05668D" d="M36.5,35h1h2h17c0.553,0,1-0.448,1-1s-0.447-1-1-1h-17h-2h-1c-0.553,0-1,0.448-1,1     S35.947,35,36.5,35z" data-original="#556080" class="" data-old_color="#EBF2FA"/>
			<path style="fill:#05668D" d="M56.499,56.998h-18c-0.003,0-0.006,0.002-0.01,0.002H36.5c-0.553,0-1,0.448-1,1s0.447,1,1,1h3     c0.003,0,0.006-0.002,0.01-0.002h16.989c0.553,0,1-0.448,1-1S57.052,56.998,56.499,56.998z" data-original="#556080" class="" data-old_color="#EBF2FA"/>
		</g>
	</g>
</g></g> </svg>
